<?xml version="1.0" encoding="UTF-8"?>
<!DOCTYPE svg PUBLIC "-//W3C//DTD SVG 1.1//EN" "http://www.w3.org/Graphics/SVG/1.1/DTD/svg11.dtd">
<!-- Creator: CorelDRAW -->
<svg xmlns="http://www.w3.org/2000/svg" xml:space="preserve" width="2.53591in" height="0.399031in" version="1.1" style="shape-rendering:geometricPrecision; text-rendering:geometricPrecision; image-rendering:optimizeQuality; fill-rule:evenodd; clip-rule:evenodd"
viewBox="0 0 2103.19 330.94"
 xmlns:xlink="http://www.w3.org/1999/xlink"
 xmlns:xodm="http://www.corel.com/coreldraw/odm/2003">
 <defs>
  <style type="text/css">
   <![CDATA[
    .fil0 {fill:#FEFEFE;fill-rule:nonzero}
   ]]>
  </style>
 </defs>
 <g id="Layer_x0020_1">
  <metadata id="CorelCorpID_0Corel-Layer"/>
  <g id="_2571217448752">
   <path class="fil0" d="M90.98 75.07c0,0 -90.98,0 -90.98,0 0,0 0,-75.07 0,-75.07 0,0 76.57,0 76.57,0 0,0 97.04,0 97.04,0 0,0 78.07,0 78.07,0 0,0 0,75.07 0,75.07 0,0 -94.76,0 -94.76,0 0,0 0,254.73 0,254.73 0,0 -65.94,0 -65.94,0 0,0 0,-254.73 0,-254.73z"/>
   <path class="fil0" d="M425.29 141.02c17.44,0 28.68,-4.17 33.74,-12.51 5.04,-8.34 7.58,-15.15 7.58,-20.47 0,-5.3 -2.54,-12.13 -7.58,-20.47 -5.06,-8.34 -16.3,-12.51 -33.74,-12.51 0,0 -37.14,0 -37.14,0 0,0 -40.94,0 -40.94,0 0,0 0,65.95 0,65.95 0,0 78.08,0 78.08,0zm110.68 188.78c0,0 -74.29,0 -74.29,0 0,0 -73.52,-113.72 -73.52,-113.72 0,0 -40.94,0 -40.94,0 0,0 0,113.72 0,113.72 0,0 -65.95,0 -65.95,0 0,0 0,-329.8 0,-329.8 0,0 77.71,0 77.71,0 0,0 97.04,0 97.04,0 29.56,0 49.78,8.16 60.64,24.46 10.86,16.3 16.3,39.8 16.3,70.5 0,0 0,14.22 0,14.22 0,0 0,11.94 0,11.94 0,30.71 -5.44,54.21 -16.3,70.52 -10.86,16.3 -25.64,24.45 -44.34,24.45 0,0 -9.86,0 -9.86,0 0,0 73.52,113.72 73.52,113.72z"/>
   <path class="fil0" d="M647.4 201.29c0,0 -18.94,0 -18.94,0 0.24,17.44 3.1,30.71 8.53,39.82 5.43,9.11 16.23,13.65 32.41,13.65 0,0 37.15,0 37.15,0 0,0 107.65,0 107.65,0 0,0 0,75.05 0,75.05 0,0 -76.94,0 -76.94,0 0,0 -97.04,0 -97.04,0 -29.31,0 -49.65,-7.86 -61.04,-23.6 -11.38,-15.72 -17.06,-39.51 -17.06,-71.36 0,0 0,-139.88 0,-139.88 0,-31.84 5.68,-55.63 17.06,-71.37 11.38,-15.72 31.72,-23.59 61.04,-23.59 0,0 97.04,0 97.04,0 0,0 76.94,0 76.94,0 0,0 0,75.07 0,75.07 0,0 -107.65,0 -107.65,0 0,0 -37.15,0 -37.15,0 -16.18,0 -26.98,4.55 -32.41,13.64 -5.43,9.1 -8.28,21.61 -8.53,37.53 0,0 18.94,0 18.94,0 0,0 166.79,0 166.79,0 0,0 0,75.05 0,75.05 0,0 -166.79,0 -166.79,0z"/>
   <path class="fil0" d="M1095.44 329.8c0,0 -66.33,0 -66.33,0 0,0 0,-202.43 0,-202.43 0,-18.2 -2.54,-31.47 -7.58,-39.8 -5.06,-8.34 -16.3,-12.51 -33.74,-12.51 0,0 -37.15,0 -37.15,0 -16.18,0 -26.99,4.55 -32.42,13.64 -5.43,9.1 -8.14,21.99 -8.14,38.67 0,0 0,202.43 0,202.43 0,0 -66.71,0 -66.71,0 0,0 0,-234.84 0,-234.84 0,-31.84 5.67,-55.63 17.05,-71.37 11.38,-15.72 31.72,-23.59 61.03,-23.59 0,0 97.05,0 97.05,0 29.56,0 49.78,8.16 60.64,24.46 10.86,16.3 16.3,39.8 16.3,70.5 0,0 0,234.84 0,234.84z"/>
   <path class="fil0" d="M1190.97 75.07c0,0 0,179.68 0,179.68 0,0 41.29,0 41.29,0 0,0 37.15,0 37.15,0 16.18,0 26.98,-4.54 32.41,-13.65 5.43,-9.1 8.14,-21.99 8.14,-38.68 0,0 0,-75.05 0,-75.05 0,-16.67 -2.72,-29.56 -8.14,-38.67 -5.43,-9.09 -16.23,-13.64 -32.41,-13.64 0,0 -37.15,0 -37.15,0 0,0 -41.29,0 -41.29,0zm-65.97 254.73c0,0 0,-329.8 0,-329.8 0,0 76.58,0 76.58,0 0,0 97.04,0 97.04,0 29.31,0 49.63,7.87 61,23.59 11.38,15.74 17.06,39.53 17.06,71.37 0,0 0,139.88 0,139.88 0,31.85 -5.67,55.64 -17.06,71.36 -11.38,15.74 -31.7,23.6 -61,23.6 0,0 -97.04,0 -97.04,0 0,0 -76.58,0 -76.58,0z"/>
   <path class="fil0" d="M1625.06 330.94c0,0 -56.37,0 -56.37,0 0,0 0,-172.07 0,-172.07 0,-15.47 -2.16,-26.75 -6.45,-33.83 -4.3,-7.09 -13.86,-10.62 -28.68,-10.62 0,0 -31.57,0 -31.57,0 -13.74,0 -22.95,3.87 -27.55,11.59 -4.61,7.74 -6.93,18.7 -6.93,32.86 0,0 0,172.07 0,172.07 0,0 -56.7,0 -56.7,0 0,0 0,-199.62 0,-199.62 0,-27.06 4.83,-47.28 14.49,-60.66 9.68,-13.37 26.98,-20.06 51.88,-20.06 0,0 82.49,0 82.49,0 25.13,0 42.32,6.94 51.53,20.79 9.24,13.86 13.86,33.83 13.86,59.93 0,0 0,199.62 0,199.62z"/>
   <path class="fil0" d="M1722.36 221.7c0,0 -16.09,0 -16.09,0 0.21,14.82 2.62,26.11 7.24,33.85 4.61,7.73 13.8,11.59 27.56,11.59 0,0 31.56,0 31.56,0 0,0 91.5,0 91.5,0 0,0 0,63.8 0,63.8 0,0 -65.4,0 -65.4,0 0,0 -82.48,0 -82.48,0 -24.91,0 -42.2,-6.67 -51.88,-20.06 -9.68,-13.37 -14.5,-33.59 -14.5,-60.66 0,0 0,-118.9 0,-118.9 0,-27.06 4.83,-47.28 14.5,-60.66 9.68,-13.37 26.97,-20.06 51.88,-20.06 0,0 82.48,0 82.48,0 0,0 65.4,0 65.4,0 0,0 0,63.81 0,63.81 0,0 -91.5,0 -91.5,0 0,0 -31.56,0 -31.56,0 -13.76,0 -22.95,3.87 -27.56,11.59 -4.62,7.74 -7.03,18.37 -7.24,31.9 0,0 16.09,0 16.09,0 0,0 141.76,0 141.76,0 0,0 0,63.8 0,63.8 0,0 -141.76,0 -141.76,0z"/>
   <path class="fil0" d="M1966.59 114.42c0,0 -77.33,0 -77.33,0 0,0 0,-63.81 0,-63.81 0,0 65.1,0 65.1,0 0,0 82.47,0 82.47,0 0,0 66.36,0 66.36,0 0,0 0,63.81 0,63.81 0,0 -80.56,0 -80.56,0 0,0 0,216.53 0,216.53 0,0 -56.04,0 -56.04,0 0,0 0,-216.53 0,-216.53z"/>
  </g>
 </g>
</svg>
